<svg width="872" height="872" viewBox="0 0 872 872" fill="none" xmlns="http://www.w3.org/2000/svg">
<path d="M585.986 844.404C811.653 761.457 927.351 511.275 844.404 285.607C761.457 59.9396 511.275 -55.7583 285.608 27.1889C59.9398 110.136 -55.7581 360.318 27.1891 585.985C110.136 811.653 360.318 927.351 585.986 844.404Z" fill="#40180E"/>
<path d="M575.557 816.036C785.558 738.847 893.224 506.034 816.035 296.033C738.846 86.0315 506.033 -21.6343 296.032 55.5544C86.0306 132.743 -21.6352 365.556 55.5535 575.558C132.742 785.559 365.556 893.225 575.557 816.036Z" fill="url(#paint0_radial_1862_1108)"/>
<path d="M61.1569 589.87C68.7053 608.266 77.4722 625.832 87.327 642.492C200.213 614.846 321.892 577.8 447.032 531.803C589.079 479.592 720.242 421.494 834.185 362.022C830.719 343.408 825.92 324.826 819.69 306.391C705.6 365.98 574.214 424.198 431.899 476.508C302.666 524.009 177.133 561.964 61.1569 589.87Z" fill="#9B5528"/>
<path opacity="0.1" d="M73.9107 619.967C75.6807 623.85 77.4737 627.693 79.3114 631.519C136.362 620.608 246.833 592.158 447.603 518.362C703.62 424.26 799.999 369.074 832.358 347.202C831.226 343.085 830.043 338.97 828.822 334.852C799.664 354.832 704.464 410.949 443.382 506.913C240.834 581.363 129.888 609.418 73.9107 619.967Z" fill="#40180E"/>
<path opacity="0.2" d="M70.9043 611.787C72.3528 614.796 73.8267 617.77 75.3452 620.727C131.682 607.876 241.291 577.082 442.062 503.286C698.079 409.183 795.859 357.809 828.926 337.863C828.115 334.62 827.255 331.382 826.357 328.146C796.542 346.339 699.845 398.381 438.763 494.345C236.214 568.794 126.171 599.304 70.9043 611.787Z" fill="#ADB1B6"/>
<path d="M363.987 220.986C308.594 241.347 275.632 290.341 290.36 330.411C301.368 360.359 335.896 376.851 375.762 374.771L392.533 418.81C394.283 423.411 399.41 425.745 404.03 424.047C408.217 422.508 410.636 418.134 409.726 413.774L402.766 380.479L416.397 405.519C420.04 412.209 428.035 415.224 435.19 412.594C442.337 409.967 446.484 402.489 444.927 395.032L438.848 365.949L455.842 397.165C457.88 400.919 462.358 402.599 466.369 401.125C470.865 399.473 473.151 394.464 471.44 389.99L454.607 345.782C486.327 321.541 501.958 286.621 490.95 256.673C476.219 216.596 419.377 200.619 363.984 220.979L363.987 220.986ZM350.91 339.573C337.751 345.377 322.562 338.352 318.463 324.568C315.086 313.202 320.786 300.876 331.633 296.088C344.792 290.285 359.973 297.312 364.08 311.094C367.457 322.459 361.757 334.785 350.91 339.573ZM446.211 304.544C433.052 310.347 417.871 303.32 413.767 289.546C410.382 278.183 416.082 265.857 426.937 261.067C440.096 255.263 455.284 262.287 459.384 276.072C462.761 287.438 457.061 299.763 446.214 304.551L446.211 304.544Z" fill="#FFFFEB" fill-opacity="0.8"/>
<defs>
<radialGradient id="paint0_radial_1862_1108" cx="0" cy="0" r="1" gradientUnits="userSpaceOnUse" gradientTransform="translate(435.794 435.795) rotate(-20.1816) scale(405.113)">
<stop offset="0.520833" stop-color="#CE7135"/>
<stop offset="1" stop-color="#9B5528"/>
</radialGradient>
</defs>
</svg>
