<svg width="14483" height="2438" viewBox="0 0 14483 2438" fill="none" xmlns="http://www.w3.org/2000/svg">
<path d="M615.102 1978.68L969.173 1994.21C1058.4 1997.72 1129.54 2020.53 1182.99 2062.92C1236.31 2105.3 1262.9 2176.71 1262.9 2277.01C1262.9 2316.83 1252.37 2348.29 1231.45 2371.64C1210.39 2394.99 1182.59 2410.92 1147.63 2419.56C1103.89 2431.71 1059.34 2437.65 1013.85 2437.65C968.363 2437.65 922.062 2435.89 874.817 2432.38C834.591 2428.87 794.365 2426.31 754.139 2424.55C713.913 2422.8 673.687 2421.04 633.461 2419.29C577.441 2415.78 521.557 2413.62 465.537 2412.81C409.517 2411.87 352.688 2409.84 295.049 2406.33C275.881 2404.58 256.577 2399.85 237.409 2392.16C218.241 2384.33 199.748 2376.09 182.335 2367.59C131.58 2341.67 94.0533 2305.22 69.4857 2258.52C44.9181 2211.81 38.8437 2164.29 51.1275 2115.83C54.6372 2096.8 60.7116 2077.77 69.4857 2058.73C78.2599 2039.7 86.899 2021.61 95.6732 2004.2C214.597 1812.24 315.972 1619.47 399.933 1425.63C483.76 1231.92 561.648 1035.64 633.326 836.668C559.893 828.029 488.62 820.199 419.506 813.315C350.393 806.43 282.63 797.791 216.216 787.397C197.048 783.887 178.15 779.162 159.927 773.223C141.569 767.148 122.806 759.049 103.637 748.654C77.45 733.131 55.9871 714.097 39.3837 691.554C22.7803 669.145 11.4414 646.197 5.36701 622.844C-0.842387 599.49 -0.842387 576.137 5.36701 552.784C11.4414 529.431 24.1302 509.182 43.4333 491.768C57.3369 477.999 73.5353 466.255 91.8935 456.671C110.252 447.222 130.77 440.607 153.582 437.233C219.996 419.954 296.129 408.615 381.71 403.485C470.936 398.22 560.028 397.545 649.254 400.92C738.48 404.43 829.326 415.634 922.062 434.668L1000.76 450.192C1046.25 462.341 1086.88 481.779 1122.65 508.642C1158.56 535.505 1188.26 566.148 1211.88 600.705C1235.5 635.263 1250.76 672.52 1257.77 712.342C1264.79 752.164 1262.09 791.851 1249.95 831.673C1235.91 867.986 1220.11 902.948 1202.7 936.83C1185.15 970.578 1166.79 1004.73 1147.63 1039.29L646.689 1916.18C639.67 1924.82 634.001 1934.27 629.546 1944.8C625.226 1955.19 620.367 1966.53 615.102 1978.55V1978.68Z" fill="#F3FBCE"/>
<path d="M1551.64 1587.08C1560.41 1465.99 1571.35 1352.74 1584.44 1247.17C1597.53 1141.61 1624.26 1048.74 1664.35 968.284C1704.58 887.83 1763.57 822.09 1841.32 771.198C1919.07 720.307 2027.06 688.72 2165.15 676.57C2320.79 664.421 2447.14 685.75 2544.2 740.151C2641.25 794.687 2723.05 886.75 2789.47 1016.48C2826.18 1089.1 2852.78 1166.58 2869.38 1248.66C2885.98 1330.87 2894.22 1413.35 2894.22 1496.36C2894.22 1579.38 2886.79 1660.65 2871.94 1740.16C2857.1 1819.67 2836.58 1893.23 2810.26 1960.59C2749.11 2117.99 2663.8 2229.63 2554.59 2295.37C2445.25 2361.11 2313.77 2396.61 2159.89 2401.74C2023.42 2407.01 1913.67 2387.84 1830.79 2344.64C1747.64 2301.44 1684.33 2242.18 1640.6 2166.86C1596.86 2091.67 1569.32 2003.39 1557.98 1902.28C1546.64 1801.04 1544.35 1696.01 1551.5 1587.08H1551.64ZM2477.51 1737.59C2487.91 1647.69 2492.77 1560.21 2491.96 1475.44C2491.01 1390.67 2475.76 1307.65 2446.06 1226.38C2432.02 1188.32 2408 1157.13 2373.98 1132.97C2339.96 1108.67 2302.71 1092.74 2262.48 1084.92C2222.25 1077.09 2182.03 1077.09 2141.8 1084.92C2101.58 1092.74 2069.31 1108.67 2044.75 1132.97C2014.91 1162.4 1991.83 1203.03 1975.23 1254.87C1958.62 1306.7 1946.34 1361.24 1938.51 1418.34C1930.68 1475.44 1926.23 1530.79 1925.42 1584.38C1924.47 1637.97 1924.07 1681.3 1924.07 1714.1C1925.69 1783.35 1939.86 1839.51 1966.05 1882.71C1992.24 1926.04 2024.63 1957.63 2063.1 1977.33C2101.58 1997.31 2143.56 2006.36 2188.91 2004.6C2234.4 2002.98 2277.19 1991.24 2317.42 1969.5C2357.64 1947.91 2392.47 1917.53 2422.3 1878.79C2452 1839.91 2470.36 1792.8 2477.38 1737.46L2477.51 1737.59Z" fill="#F3FBCE"/>
<path d="M4418.22 1343.15C4399.05 1360.56 4376.24 1382.03 4350.05 1407.94C4323.86 1433.86 4296.6 1459.92 4268.79 1485.83C4240.85 1511.75 4214.12 1536.86 4188.88 1561.02C4163.5 1585.32 4142.98 1604.36 4127.19 1618.12C4116.79 1628.52 4105.73 1638.51 4094.39 1647.96C4083.05 1657.54 4071.17 1666.59 4059.02 1675.23C4011.78 1715.05 3963.31 1731.38 3913.5 1724.5C3863.69 1717.61 3816.04 1698.17 3770.55 1666.05C3725.06 1634.05 3682.68 1594.77 3643.4 1548.06C3603.98 1501.36 3571.31 1457.35 3544.99 1415.77C3543.24 1462.48 3543.91 1507.43 3547.42 1550.76C3550.66 1594.1 3554.44 1636.89 3558.49 1679.14C3562.54 1721.53 3566.72 1763.51 3570.77 1804.95C3574.82 1846.39 3578.47 1889.72 3581.84 1934.68C3585.35 1974.5 3586.7 2014.72 3585.76 2055.22C3584.81 2095.99 3584.41 2136.08 3584.41 2175.77C3582.65 2219.1 3572.66 2256.22 3554.3 2287.4C3535.95 2318.59 3506.65 2343.56 3466.43 2362.59C3373.83 2404.04 3286.22 2397.96 3204.15 2344.51C3181.47 2330.74 3164.73 2311.97 3154.34 2288.75C3143.95 2265.4 3138.55 2239.89 3138.55 2212.22C3138.55 2167.26 3139.49 2122.31 3141.11 2077.23C3142.73 2032.27 3143.68 1987.32 3143.68 1942.24V1677.65C3143.68 1636.21 3143.27 1594.23 3142.33 1551.84C3141.38 1509.46 3140.98 1463.16 3140.98 1413.07C3140.98 1385.4 3140.03 1350.84 3138.41 1309.27C3136.66 1267.83 3135.44 1224.9 3134.5 1180.89C3133.55 1136.89 3132.2 1093.96 3130.58 1052.52C3128.83 1011.07 3128.02 975.572 3128.02 946.144C3128.02 887.424 3143.81 839.367 3175.26 802.245C3206.71 765.123 3249.64 741.229 3303.77 730.97C3338.73 722.331 3371.53 723.141 3402.17 733.535C3432.82 743.929 3461.97 760.398 3490.05 782.806C3505.84 796.71 3521.1 811.829 3535.95 828.163C3550.8 844.632 3566.05 860.696 3581.84 876.084C3608.03 902.003 3633.81 934.94 3659.19 974.627C3684.43 1014.45 3710.35 1055.89 3736.54 1099.22C3762.72 1142.55 3789.45 1184.4 3816.45 1225.03C3843.58 1265.8 3871.12 1299.95 3899.06 1327.49C3998.68 1230.57 4094.52 1138.5 4186.31 1051.17C4278.1 963.828 4362.47 872.575 4439.41 777.407C4467.36 742.849 4500.16 718.281 4537.82 703.432C4575.34 688.718 4613.01 683.049 4650.67 686.559C4688.19 690.068 4724.1 702.622 4758.12 724.221C4792.13 745.954 4820.62 776.462 4843.29 816.284C4862.46 852.596 4876.5 890.663 4885.27 930.485C4894.05 970.307 4898.37 1009.99 4898.37 1049.82C4901.88 1212.48 4903.63 1373.25 4903.63 1532.41V2014.99C4903.63 2096.26 4888.78 2163.21 4859.09 2216.13C4829.26 2268.91 4792.67 2307.38 4748.94 2331.55C4705.2 2355.84 4658.9 2366.1 4609.9 2362.73C4561.04 2359.22 4516.36 2342.35 4476.13 2312.11C4435.9 2281.87 4404.86 2237.86 4382.99 2179.82C4361.12 2121.91 4355.45 2051.44 4365.85 1968.29C4371.11 1923.34 4375.83 1874.47 4380.29 1821.69C4384.61 1768.91 4389.06 1715.32 4393.38 1660.78C4397.7 1606.25 4401.75 1551.71 4405.26 1497.31C4408.77 1442.77 4413.09 1391.34 4418.36 1342.88L4418.09 1343.15H4418.22Z" fill="#F3FBCE"/>
<path d="M6083.69 1459.92C6108.25 1472.07 6129.99 1482.32 6149.16 1491.1C6168.46 1499.74 6187.63 1508.51 6206.93 1517.02C6261.19 1541.32 6308.3 1570.61 6348.53 1605.3C6388.76 1639.86 6424.53 1679.68 6456.11 1724.63C6512 1805.9 6531.17 1888.91 6513.75 1973.69C6496.21 2058.46 6444.64 2130.14 6359.06 2189C6318.83 2218.42 6271.59 2244.34 6217.46 2266.89C6163.19 2289.29 6107.71 2308.87 6050.88 2325.34C5994.06 2341.81 5937.09 2354.76 5880.4 2364.21C5823.57 2373.8 5772.41 2381.09 5727.05 2386.22C5674.54 2393.1 5621.63 2397.02 5568.31 2397.96C5514.85 2398.91 5461.13 2395.8 5407 2388.78C5282.81 2378.39 5216.4 2309.27 5207.62 2181.17C5204.11 2110.3 5200.6 2040.64 5197.09 1972.34C5193.58 1904.03 5190.88 1833.57 5189.26 1760.81C5185.75 1669.15 5184.4 1578.84 5185.35 1489.75C5186.29 1400.66 5184.94 1309.4 5181.43 1215.99C5179.68 1143.36 5176.57 1072.5 5172.26 1003.25C5167.94 933.995 5163.89 863.126 5160.51 790.501C5158.76 759.318 5158.76 729.081 5160.51 699.788C5162.13 670.36 5167.53 641.067 5176.31 611.639C5186.7 577.082 5206.41 551.164 5235.29 533.75C5264.18 516.471 5296.44 504.862 5332.35 498.653C5368.12 492.713 5404.43 491.363 5441.28 494.738C5477.87 498.248 5509.45 502.568 5535.77 507.697C5665.09 531.995 5785.37 569.523 5896.46 620.549C6007.42 671.575 6111.9 733.4 6209.9 806.16C6232.58 820.064 6252.28 835.183 6268.89 851.517C6285.49 867.985 6301.69 885.669 6317.35 904.703C6399.56 1001.63 6409.14 1104.49 6346.24 1213.42C6302.5 1292.93 6238.79 1358.67 6154.69 1410.65C6144.3 1419.28 6133.63 1427.52 6123.24 1435.35C6112.71 1443.18 6099.61 1451.41 6083.82 1460.05V1459.78L6083.69 1459.92ZM5624.73 1184.94C5644.03 1178.06 5661.45 1172.79 5677.11 1169.42C5692.9 1165.91 5707.75 1159.97 5721.65 1151.33C5739.06 1144.44 5754.86 1135.81 5768.9 1125.41C5782.8 1115.02 5796.84 1103.81 5810.88 1091.66C5837.07 1069.26 5837.07 1043.34 5810.88 1013.77C5784.69 987.856 5754.05 966.258 5719.09 948.979C5684.13 931.701 5646.6 911.857 5606.37 889.314C5609.88 942.905 5612.85 993.121 5615.55 1039.83C5618.12 1086.53 5621.22 1135 5624.73 1185.08V1184.94ZM5666.71 2043.75C5696.41 2043.75 5735.83 2041.59 5784.83 2037.27C5833.69 2032.95 5881.88 2024.71 5929.13 2012.57C5990.28 1997.04 6034.42 1977.2 6061.55 1952.9C6088.68 1928.6 6100.96 1903.22 6098.26 1876.36C6095.7 1849.5 6079.5 1823.17 6049.8 1797.26C6019.97 1771.34 5979.88 1748.93 5929.13 1729.9C5878.37 1710.86 5826.4 1695.74 5773.08 1684.54C5719.76 1673.34 5673.06 1665.1 5632.7 1659.84C5639.71 1725.58 5645.92 1789.56 5651.05 1851.79C5656.32 1914.02 5661.45 1978.01 5666.71 2043.75Z" fill="#F3FBCE"/>
<path d="M7253.48 2106.38C7253.48 2135.54 7249.16 2166.86 7240.39 2200.61C7231.62 2234.35 7217.71 2265.81 7198.41 2294.83C7179.11 2323.99 7153.86 2348.15 7122.41 2367.18C7090.96 2386.35 7052.49 2395.26 7007 2394.05C6961.64 2392.7 6923.17 2381.76 6891.58 2361.38C6860.13 2340.86 6835.29 2315.75 6816.8 2286.05C6798.44 2256.36 6785.75 2224.5 6778.73 2190.89C6771.72 2157.14 6769.96 2126.5 6773.47 2098.69C6778.74 2031.33 6784.4 1964.24 6790.61 1897.28C6796.69 1830.6 6803.3 1763.51 6810.32 1695.88C6813.83 1641.75 6817.75 1587.75 6822.2 1534.3C6826.66 1480.84 6832.19 1426.84 6839.21 1372.71C6844.47 1319.93 6878.63 1281.46 6941.53 1257.7C6990.39 1239.21 7038.99 1237.86 7087.05 1253.65C7135.1 1269.58 7168.85 1297.25 7188.02 1336.94C7198.41 1358.13 7206.37 1379.6 7211.64 1401.33C7216.9 1423.2 7220.41 1445.34 7222.03 1467.75C7232.43 1578.71 7240.39 1686.56 7245.65 1791.05C7250.92 1895.53 7253.62 2000.69 7253.62 2106.38H7253.48Z" fill="#F3FBCE"/>
<path d="M7505.1 844.902C7505.1 730.7 7563.68 655.511 7680.85 619.198C7834.74 577.757 7980.25 564.392 8117.53 578.971C8254.82 593.685 8377.65 633.912 8486.05 699.517C8594.44 765.258 8684.88 854.351 8757.51 966.663C8830.13 1079.11 8877.78 1211.4 8900.46 1363.53C8914.36 1458.7 8916.12 1552.52 8905.72 1645.12C8895.33 1737.73 8870.36 1824.52 8830.94 1905.92C8791.52 1987.32 8736.85 2061.97 8666.93 2130.28C8597.01 2198.58 8510.35 2256.09 8407.22 2302.79C8366.99 2321.83 8324.6 2334.38 8280.06 2340.46C8235.51 2346.53 8190.43 2351.25 8145.07 2354.63C8104.85 2358.14 8064.62 2361.92 8024.39 2366.37C7984.17 2370.69 7943.94 2372.85 7903.72 2372.85C7863.49 2372.85 7824.48 2371.5 7786.95 2368.94C7749.29 2366.37 7712.17 2361.65 7675.45 2354.76C7622.94 2344.37 7579.75 2316.7 7545.73 2271.75C7511.71 2226.79 7492.82 2174.01 7489.44 2113.4C7487.69 2075.34 7487.15 2037.27 7488.09 1999.2C7489.04 1961.13 7490.25 1922.26 7492.01 1882.43C7498.89 1700.74 7501.99 1525.25 7501.18 1355.84C7500.24 1186.29 7501.59 1015.93 7505.1 844.632V844.902ZM7990.38 1983.95C8086.49 1975.31 8170.45 1948.58 8242.13 1903.49C8299.9 1865.43 8345.66 1813.99 8379.81 1749.06C8413.83 1684.27 8436.64 1614.61 8447.98 1540.1C8459.32 1465.86 8458.51 1391.34 8445.42 1316.96C8432.32 1242.72 8407.35 1177.79 8370.63 1122.44C8334.05 1067.1 8284.51 1025.52 8222.42 997.98C8160.33 970.307 8086.49 965.988 8000.77 985.021C8000.77 1076.68 8000.37 1162.8 7999.42 1243.26C7998.48 1323.71 7997.13 1403.63 7995.51 1483.27C7993.75 1562.78 7992.4 1643.23 7991.59 1724.5C7990.65 1805.76 7990.24 1892.29 7990.24 1983.95H7990.51H7990.38Z" fill="#F3FBCE"/>
<path d="M9498.58 1937.24C9493.32 1977.06 9488.19 2015.53 9482.93 2052.66C9477.66 2089.91 9471.59 2126.63 9464.57 2162.94C9459.3 2201.01 9448.91 2235.57 9433.12 2266.75C9406.93 2325.61 9361.3 2353.28 9296.64 2349.77C9233.74 2346.26 9190 2316.02 9165.57 2259.06C9153.29 2226.25 9145.46 2190.75 9141.95 2152.68C9136.68 2067.91 9132.77 1970.99 9130.21 1862.05C9127.64 1752.98 9131.15 1642.02 9140.6 1528.63C9150.18 1415.37 9168.68 1304.27 9195.67 1195.2C9222.81 1086.13 9262.09 988.936 9313.79 903.352C9365.35 817.633 9432.58 748.113 9515.73 694.387C9598.74 640.796 9701.47 612.314 9823.77 608.669C9895.45 607.049 9960.24 618.253 10017.9 642.416C10075.7 666.715 10127.2 699.922 10172.6 742.309C10218.1 784.696 10256.9 833.022 10289.3 887.558C10321.7 942.094 10348.5 998.655 10369.2 1057.51C10398.9 1140.53 10426.1 1232.59 10450.5 1333.84C10474.9 1435.08 10494.1 1537.94 10508.2 1642.56C10522.1 1747.17 10528.7 1848.82 10527.9 1947.36C10526.9 2045.91 10516.1 2132.44 10495.1 2206.82C10479.4 2258.79 10450 2299.42 10407.2 2328.71C10364.4 2358.14 10315 2371.1 10259 2367.59C10206.6 2364.08 10160.2 2345.18 10119.9 2310.49C10079.7 2275.93 10054.3 2231.79 10043.9 2178.2C10040.4 2157.41 10037.7 2136.76 10036.1 2115.97C10034.3 2095.18 10031.6 2074.52 10028.1 2053.74C10024.6 2034.7 10021.7 2014.32 10019 1992.72C10016.4 1971.12 10013.2 1948.17 10009.8 1924.01C9925.95 1927.52 9841.86 1929.68 9758.03 1930.49C9674.2 1931.44 9587.54 1933.46 9498.31 1936.97V1937.24H9498.58ZM9548.39 1631.08C9621.83 1627.57 9692.69 1624.2 9760.86 1620.69C9829.03 1617.18 9897.2 1613.8 9965.37 1610.29C9967.12 1572.23 9964.42 1526.47 9957.54 1472.74C9950.52 1419.15 9942.69 1367.31 9933.92 1317.1C9919.88 1242.85 9901.11 1187.37 9877.63 1151.06C9854 1114.75 9827.41 1096.52 9797.71 1096.52C9768.02 1096.52 9737.38 1113.94 9705.92 1148.49C9674.47 1183.05 9644.77 1232.32 9616.7 1296.31C9597.53 1341.26 9583.49 1390.26 9574.72 1442.91C9565.94 1495.69 9557.17 1558.32 9548.53 1630.95L9548.39 1631.08Z" fill="#F3FBCE"/>
<path d="M10746.9 1672.66C10740.1 1504.87 10764.4 1350.98 10820.4 1210.86C10876.3 1070.74 10969 944.524 11098.3 832.078C11177 761.208 11261.9 710.992 11352.6 681.564C11443.5 652.136 11543.2 651.326 11651.6 678.999C11691.7 689.393 11729.5 704.107 11764.5 723.006C11799.4 742.04 11829.9 768.093 11856.3 800.895C11884.2 832.078 11899.9 864.88 11903.5 899.438C11907 933.995 11899.1 966.123 11879.9 995.416C11841.4 1059.4 11778.4 1081.94 11691 1062.78C11687.5 1061.16 11683.2 1060.21 11677.9 1060.21C11672.7 1060.21 11667.4 1058.59 11662.2 1054.95C11578.3 1029.03 11503 1046.31 11436.6 1106.92C11357.9 1179.54 11300.3 1259.05 11263.5 1345.58C11226.8 1432.11 11212.9 1528.9 11221.6 1636.08C11228.6 1722.61 11253 1787 11295 1829.38C11337 1871.77 11401.6 1899.85 11489.1 1913.75C11520.5 1919.02 11551.6 1920.64 11582.2 1919.02C11612.9 1917.4 11643 1913.08 11672.8 1906.06C11713 1893.91 11751.5 1887.02 11788.1 1885.27C11831.7 1881.76 11871.5 1890.53 11907.4 1911.19C11943.3 1931.98 11968.2 1959.65 11982.2 1994.21C11996.1 2028.76 11998 2063.86 11987.5 2099.36C11977.1 2134.87 11955.1 2167.26 11922 2196.69C11881.8 2231.25 11839.4 2257.17 11794.8 2274.58C11750.3 2291.99 11702.6 2302.25 11651.9 2305.76C11541.7 2314.4 11433.2 2308.33 11326.7 2287.67C11220.1 2266.89 11124.8 2230.57 11040.8 2178.6C10957 2126.77 10888.1 2059.27 10835 1976.25C10781.5 1893.23 10752.3 1791.99 10747.1 1672.66H10746.9Z" fill="#F3FBCE"/>
<path d="M13096.9 1804.95C13025.1 1808.46 12956.5 1811.02 12890.9 1812.78C12825.5 1814.53 12758.5 1817.1 12690.3 1820.61C12688.6 1831 12686.8 1840.59 12685.1 1849.23C12683.3 1857.87 12682.5 1866.64 12682.5 1875.14C12680.8 1911.46 12680.4 1948.17 12681.2 1985.43C12682.1 2022.55 12681.6 2059.41 12679.8 2095.72C12679.8 2166.72 12657.9 2234.08 12614.3 2298.07C12593.3 2329.25 12568 2352.6 12538.4 2368.13C12508.5 2383.65 12477.6 2391.48 12445.2 2391.48C12412.8 2391.48 12381.4 2384.19 12350.7 2369.48C12320.1 2354.76 12294.4 2332.76 12273.4 2303.33C12252.3 2273.91 12235.7 2243.26 12223.6 2211.27C12211.3 2179.28 12206 2145.93 12207.8 2111.38C12211.3 2028.36 12214.8 1946.69 12218.3 1866.24C12221.8 1785.78 12225.2 1703.98 12228.7 1621.09L12260.1 1068.44C12263.7 1013.1 12267 956.808 12270.5 899.842C12274 842.742 12277.6 786.586 12280.9 731.24C12284.4 703.567 12289.7 678.459 12296.6 656.05C12308.9 621.493 12329 595.035 12356.9 576.946C12384.9 558.858 12416.3 548.059 12451.4 544.414C12488.1 542.794 12521.3 550.488 12551 567.767C12580.7 585.181 12602.6 610.154 12616.5 642.956C12625.3 661.99 12632.7 682.778 12638.8 705.187C12644.9 727.595 12648.8 750.139 12650.5 772.547C12657.5 891.878 12663.8 1010.8 12668.9 1129.33C12674.1 1247.85 12680.2 1366.77 12687.2 1486.1V1569.12C12758.9 1563.86 12828.4 1557.92 12895.7 1551.03C12962.9 1544.15 13031.6 1537.27 13101.5 1530.25C13105 1490.42 13108 1449.79 13110.8 1408.35C13113.5 1366.91 13116.4 1325.33 13120 1283.89C13130.4 1190.48 13141.1 1097.06 13151.5 1003.65C13161.9 910.237 13173.3 816.014 13185.5 720.846C13189 686.288 13199.4 655.511 13216.9 628.783C13234.3 601.92 13261.5 580.861 13298.2 565.202C13343.7 547.924 13388.8 549.138 13433.3 569.117C13477.9 589.096 13507.2 623.113 13521.2 671.574C13531.6 702.757 13539.1 734.345 13543.5 766.202C13547.9 798.195 13550.9 830.593 13552.8 863.53C13561.6 1008.78 13568 1152.41 13572.5 1294.28C13576.9 1436.16 13583.4 1577.9 13592.2 1719.77C13595.7 1775.12 13599.2 1830.06 13602.6 1884.46C13606.1 1939 13611.4 1993.8 13618.2 2049.15C13630.5 2121.77 13625.7 2182.25 13603.8 2230.84C13581.9 2279.17 13550.9 2315.21 13510.7 2338.57C13470.4 2361.92 13425.5 2373.66 13375.5 2373.66C13325.6 2373.66 13279.4 2361.92 13236.5 2338.57C13193.6 2315.21 13158.6 2281.06 13131.6 2236.11C13104.5 2191.16 13092.7 2134.87 13096.3 2067.51C13099.8 2026.06 13100.7 1984.08 13098.8 1941.7C13097.1 1899.31 13096.3 1853.95 13096.3 1805.49H13096.5L13096.9 1804.95Z" fill="#F3FBCE"/>
<path d="M7012.66 0C6775.9 0 6583.95 137.42 6583.95 306.832C6583.95 433.453 6691.13 542.12 6844.07 588.961V801.165C6844.07 893.229 6919.52 967.743 7012.53 967.743C7105.54 967.743 7180.99 893.094 7180.99 801.165V588.961C7333.93 542.12 7441.11 433.453 7441.11 306.832C7441.11 137.42 7249.16 0 7012.39 0H7012.66ZM6809.37 422.519C6744.04 433.048 6688.43 378.107 6699.09 313.447C6705.57 274.3 6737.43 242.847 6776.98 236.367C6842.31 225.838 6897.93 280.914 6887.13 345.439C6880.65 384.586 6848.79 416.039 6809.24 422.519H6809.37ZM7216.63 422.519C7151.3 433.048 7095.82 378.107 7106.35 313.447C7112.83 274.3 7144.68 242.847 7184.23 236.367C7249.57 225.838 7305.05 280.914 7294.38 345.439C7287.9 384.586 7256.05 416.039 7216.49 422.519H7216.63Z" fill="#F3FBCE"/>
<path d="M14294.9 2106.38C14294.9 2135.54 14290.5 2166.86 14281.8 2200.61C14273.1 2234.35 14259 2265.81 14239.9 2294.83C14220.6 2323.99 14195.3 2348.15 14163.9 2367.18C14132.4 2386.35 14093.9 2395.26 14048.4 2394.05C14003 2392.7 13964.6 2381.76 13933 2361.38C13901.6 2340.86 13876.7 2315.75 13858.3 2286.05C13839.9 2256.36 13827.2 2224.5 13820.2 2190.89C13813.2 2157.14 13811.4 2126.5 13814.9 2098.69C13820.2 2031.33 13825.9 1964.24 13831.9 1897.28C13838 1830.6 13844.6 1763.51 13851.6 1695.88C13855.1 1641.75 13859.1 1587.75 13863.4 1534.3C13867.8 1480.84 13873.4 1426.84 13880.5 1372.71C13885.8 1319.93 13919.9 1281.46 13982.8 1257.7C14031.7 1239.21 14080.4 1237.86 14128.4 1253.65C14176.4 1269.58 14210.2 1297.25 14229.3 1336.94C14239.9 1358.13 14247.7 1379.6 14253 1401.33C14258.2 1423.2 14261.7 1445.34 14263.3 1467.75C14273.9 1578.71 14281.7 1686.56 14287 1791.05C14292.2 1895.53 14294.8 2000.69 14294.8 2106.38H14294.9Z" fill="#F3FBCE"/>
<path d="M14054.1 0C13817.3 0 13625.4 137.42 13625.4 306.832C13625.4 433.453 13732.6 542.12 13885.5 588.961V801.165C13885.5 893.229 13961 967.743 14054 967.743C14147 967.743 14222.4 893.094 14222.4 801.165V588.961C14375.4 542.12 14482.6 433.453 14482.6 306.832C14482.6 137.42 14290.6 0 14053.8 0H14054.1ZM13850.7 422.519C13785.4 433.048 13729.9 378.107 13740.4 313.447C13746.9 274.3 13778.7 242.847 13818.3 236.367C13883.6 225.838 13939.1 280.914 13928.4 345.439C13922 384.586 13890.1 416.039 13850.6 422.519H13850.7ZM14258.1 422.519C14192.7 433.048 14137.3 378.107 14147.9 313.447C14154.4 274.3 14186.3 242.847 14225.8 236.367C14291.2 225.838 14346.8 280.914 14336 345.439C14329.5 384.586 14297.6 416.039 14258.1 422.519Z" fill="#F3FBCE"/>
</svg>
